<svg width="39" height="28" viewBox="0 0 39 28" fill="none" xmlns="http://www.w3.org/2000/svg">
<path d="M19.2159 8.47387V8.06886V4.75311V1.44493V0.944445L18.7154 0.944929L10.9081 0.95249C10.9079 0.95249 10.9078 0.95249 10.9076 0.95249C8.28697 0.95249 6.31208 0.96015 4.97249 0.974504C4.30305 0.981678 3.78986 0.990547 3.43322 1.00106C3.25542 1.0063 3.11276 1.01205 3.00761 1.01847C2.95549 1.02165 2.90782 1.02527 2.86754 1.02964L2.8646 1.02995C2.84039 1.03254 2.76861 1.04021 2.69999 1.06394M19.2159 8.47387L2.69873 1.06437C2.69916 1.06423 2.69957 1.06408 2.69999 1.06394M19.2159 8.47387L18.8197 8.55796L18.2086 8.68768C18.2086 8.68768 18.2085 8.68769 18.2085 8.6877C16.9706 8.95072 15.6613 9.84357 14.9536 10.9046M19.2159 8.47387L14.9536 10.9046M2.69999 1.06394C2.09198 1.27346 1.55501 1.78523 1.21997 2.385L1.21875 2.38719C1.17171 2.4724 1.11996 2.57251 1.08101 2.71055C1.04434 2.84051 1.02441 2.98438 1.01093 3.16116C0.984536 3.50748 0.976928 4.08086 0.965492 5.12169L0.96549 5.12194L0.942409 7.32223L0.937109 7.82747H1.44238H4.00122H6.06802V13.9359V20.0443H4.00122H1.44198H0.936692L0.942011 20.5496L0.965092 22.7423L0.965095 22.7425C0.976532 23.7835 0.984143 24.3585 1.01051 24.7074C1.02397 24.8856 1.04382 25.0301 1.07988 25.1606C1.11797 25.2984 1.16841 25.3993 1.21542 25.4867C1.50284 26.0245 1.94928 26.4445 2.49787 26.6964L2.87585 26.878L2.97846 26.9272H3.09229H10.9081H18.7159H19.2159V26.4272V23.0657V19.7042V19.303L18.8243 19.2161L18.6182 19.1703L18.6173 19.1701C17.3922 18.9004 16.7859 18.622 16.0241 18.0212C13.8954 16.33 13.4205 13.2225 14.9536 10.9046M2.69999 1.06394L14.9536 10.9046M37.9782 25.242C37.7477 25.8649 37.2335 26.4136 36.6138 26.697L36.2362 26.8784L36.1336 26.9276H36.0197H28.0977H20.1673H19.6673V26.4276V23.043V19.6664V19.2694L20.0539 19.1794L20.6057 19.051C20.8634 18.9841 21.4041 18.7792 21.7794 18.5992C22.0697 18.4521 22.2454 18.351 22.4149 18.2251C22.5884 18.0962 22.7694 17.9308 23.0598 17.6407C23.4401 17.2565 23.688 16.9621 23.88 16.6619C24.071 16.3633 24.2183 16.0407 24.3789 15.5884C24.6518 14.8102 24.7176 13.5836 24.53 12.73C24.1048 10.7973 22.5805 9.2179 20.6572 8.73699L20.6557 8.73659L20.0826 8.59134L19.7082 8.49642L19.7055 8.11013L19.6824 4.77926L19.6824 4.77807L19.6673 1.4472L19.665 0.943979L20.1682 0.944929L28.1671 0.960051L28.1676 0.960052C31.9584 0.971586 33.9694 0.979244 35.0651 1.00039C35.61 1.0109 35.9445 1.02493 36.1633 1.04645C36.3916 1.0689 36.5338 1.10287 36.6743 1.17123L36.6743 1.17115L36.6827 1.17542C37.1542 1.41595 37.6366 1.90394 37.8945 2.37331L37.8946 2.37327L37.8991 2.38178C37.9451 2.46947 37.9949 2.57053 38.0327 2.70769C38.0686 2.83806 38.0884 2.98191 38.1019 3.15988C38.1283 3.50795 38.1359 4.08113 38.1473 5.12209L38.1473 5.12234L38.1704 7.32262L38.1757 7.82787H37.6704H35.1112H33.0444V13.9363V20.0447H35.1036H37.6625H38.1625V20.5447V22.6073C38.1625 24.4251 38.1554 24.7693 37.9782 25.242ZM37.9782 25.242C37.9784 25.2416 37.9785 25.2411 37.9787 25.2407L37.5097 25.0674L37.9778 25.2431C37.9779 25.2427 37.9781 25.2424 37.9782 25.242ZM20.1673 1.44493L20.1663 1.94493L20.1695 1.94493L20.1673 1.44493ZM20.1673 1.44493L20.6673 1.44266L20.6673 1.44588L20.1673 1.44493ZM37.4563 2.61411C37.2422 2.22452 36.83 1.81184 36.4555 1.62082L37.4563 2.61411ZM37.4563 2.61411C37.6167 2.91974 37.6243 3.02679 37.6474 5.12759L37.4563 2.61411ZM37.6704 7.32787L37.6652 6.82787H37.6704V7.32787ZM37.6704 7.32787L37.1705 7.33311L37.1704 7.32787H37.6704ZM2.80081 0.614027L2.79946 0.614382C1.58754 0.933735 0.724419 1.941 0.571317 3.26719C0.571282 3.26748 0.571331 3.26704 0.571263 3.26769L0.57109 3.26941L0.570525 3.27567L0.568923 3.2973C0.56771 3.31553 0.566406 3.33912 0.565046 3.36849C0.562327 3.42727 0.559608 3.50437 0.55693 3.59955C0.55158 3.78969 0.546567 4.04558 0.541917 4.35885C0.532621 4.98504 0.524859 5.83463 0.518644 6.83372C0.506217 8.8316 0.5 11.4233 0.5 14.0126C0.5 16.6019 0.506217 19.1878 0.518644 21.1743C0.524859 22.1676 0.532621 23.01 0.541915 23.6276C0.546565 23.9366 0.551577 24.1877 0.55692 24.3727C0.559595 24.4653 0.562304 24.5396 0.564998 24.5953C0.566345 24.6232 0.56762 24.645 0.568775 24.6613C0.569876 24.6768 0.570577 24.6831 0.570564 24.6831C0.570563 24.6831 0.570555 24.6831 0.57054 24.683C0.696405 25.6626 1.30936 26.5639 2.11404 26.9954L2.11404 26.9954L2.11528 26.9961C2.18112 27.0316 2.23091 27.0602 2.27199 27.0838C2.39319 27.1533 2.43854 27.1794 2.59667 27.2124C2.84922 27.2651 3.31474 27.306 4.36089 27.3324C6.23817 27.3798 9.85557 27.3795 17.1554 27.3791C17.9151 27.379 18.7147 27.379 19.5564 27.379C20.3981 27.379 21.1977 27.379 21.9575 27.3791C29.2572 27.3795 32.8745 27.3798 34.7518 27.3324C35.7979 27.306 36.2634 27.2651 36.516 27.2124C36.6742 27.1794 36.7196 27.1533 36.8408 27.0838C36.8819 27.0602 36.9317 27.0316 36.9976 26.996L36.998 26.9958C37.4912 26.7303 37.9934 26.1953 38.2735 25.6091C38.2736 25.6089 38.2737 25.6087 38.2738 25.6085L38.5 25.1309V13.9363V2.74166L38.2739 2.26419C38.2738 2.26397 38.2737 2.26375 38.2736 2.26353C37.8518 1.38144 37.0254 0.736807 36.1431 0.564543C36.1374 0.564196 36.1189 0.562805 36.0812 0.561083C36.0261 0.558571 35.9485 0.556 35.847 0.553432C35.6444 0.548311 35.3558 0.543421 34.9814 0.538836C34.2331 0.529669 33.1486 0.521791 31.739 0.515575C28.9202 0.503143 24.8052 0.497374 19.4883 0.501154H19.488C11.9347 0.501154 7.84783 0.503048 5.59161 0.520191C4.46213 0.528774 3.79847 0.541145 3.39028 0.558617C2.97552 0.57637 2.85855 0.598639 2.80081 0.614027ZM33.0444 7.32787H32.5444V7.82787L33.0444 7.32787ZM5.69349 19.1694V19.6694H5.19349H3.32152H1.44994H0.949942V19.1694V13.9745V8.7792V8.2792H1.44994H3.32152H5.19349H5.69349V8.7792V13.9745V19.1694ZM38.1625 19.1694V19.6735L37.6584 19.6693L35.8095 19.6542L35.8074 19.6542L33.9509 19.6311L33.4593 19.625L33.4571 19.1334L33.4341 13.9536V13.9529L33.4189 8.78066L33.4175 8.2792H33.9189H35.7909H37.6625H38.1625V8.7792V13.9745V19.1694ZM18.3632 18.7024C18.2686 18.6786 18.1511 18.6461 18.0306 18.61C16.5024 18.1598 15.2576 16.9821 14.7228 15.4724C14.5847 15.0896 14.51 14.582 14.4888 14.0998C14.4676 13.6173 14.4976 13.1019 14.6028 12.7024C15.027 11.0666 16.2872 9.71648 17.8685 9.21253L17.8703 9.21195C17.9285 9.19366 17.9755 9.17558 18.031 9.15425C18.0518 9.14622 18.0739 9.13774 18.0982 9.12861L18.103 9.12681C18.1676 9.1025 18.3002 9.05259 18.4429 9.04831C18.5281 9.04575 18.633 9.05804 18.7405 9.10877C18.8496 9.16024 18.9311 9.23703 18.9895 9.31856C19.0927 9.4627 19.1321 9.63467 19.1538 9.76684C19.1997 10.0456 19.2126 10.4821 19.2169 11.1173C19.2195 11.5109 19.2186 11.9988 19.2175 12.5975C19.2167 12.9835 19.2159 13.4155 19.2159 13.8981C19.2159 15.0993 19.2083 16.1905 19.1967 16.9823C19.191 17.3778 19.1842 17.7007 19.1769 17.926C19.1733 18.0378 19.1693 18.1301 19.165 18.1965C19.163 18.228 19.1603 18.2629 19.1563 18.2938C19.1548 18.3062 19.1508 18.3361 19.1422 18.37C19.1389 18.3831 19.1278 18.4264 19.1025 18.4766C19.0904 18.5006 19.0617 18.5536 19.0079 18.6071C18.9532 18.6615 18.8336 18.7529 18.6546 18.7529C18.5874 18.7529 18.5178 18.7381 18.4963 18.7335L18.4931 18.7329C18.455 18.7249 18.4103 18.7143 18.3632 18.7024ZM18.0203 9.68892C18.2576 9.61431 18.4149 9.51712 18.5189 9.55743C18.7566 9.64955 18.7159 10.4597 18.7159 13.8981C18.7159 15.5657 18.7011 17.0194 18.6818 17.7506C18.6878 17.7519 18.6932 17.7531 18.698 17.7541C18.7064 17.7558 18.7106 17.7566 18.7113 17.7567C18.7115 17.7567 18.7115 17.7567 18.7114 17.7567C18.7109 17.7567 18.7067 17.756 18.6999 17.7552C18.6971 17.7549 18.6907 17.7542 18.6817 17.7537L18.0203 9.68892ZM20.7151 18.6095L20.7151 18.6096L20.7085 18.6114L20.3034 18.726L19.6673 18.906V18.2449V13.8901C19.6673 12.6936 19.6711 11.6055 19.6768 10.8161C19.6796 10.4217 19.683 10.1007 19.6866 9.8777C19.6885 9.76665 19.6904 9.67762 19.6924 9.61527C19.6934 9.58497 19.6946 9.55632 19.696 9.53319C19.6967 9.52332 19.698 9.50491 19.7005 9.48498C19.7014 9.47807 19.7047 9.45211 19.7127 9.42066C19.7157 9.40891 19.7266 9.36618 19.752 9.31637C19.7642 9.29246 19.7931 9.23958 19.8472 9.18645C19.9025 9.13202 20.0214 9.04288 20.1979 9.04288V9.04271L20.2107 9.04304C20.2449 9.04392 20.2716 9.04822 20.2783 9.04928C20.2895 9.05105 20.2987 9.05287 20.3043 9.05403C20.3157 9.05639 20.326 9.05885 20.3331 9.06058C20.3478 9.0642 20.3642 9.06857 20.3801 9.07294C20.4128 9.08189 20.4555 9.0941 20.5041 9.10838C20.6016 9.137 20.7301 9.17593 20.8659 9.21857C21.523 9.42064 22.3096 9.90881 22.813 10.4122C24.3044 11.9036 24.6658 14.182 23.7263 16.0959C23.1877 17.2066 21.9188 18.2511 20.7151 18.6095Z" stroke="url(#paint0_linear_42313_487)"/>
<defs>
<linearGradient id="paint0_linear_42313_487" x1="39" y1="28" x2="-2.69323e-07" y2="6.44415e-07" gradientUnits="userSpaceOnUse">
<stop stop-color="#00B37E"/>
<stop offset="0.510417" stop-color="#6265E0"/>
<stop offset="1" stop-color="#FFDE2F"/>
</linearGradient>
</defs>
</svg>
