<svg width="30" height="30" viewBox="0 0 30 30" fill="none" xmlns="http://www.w3.org/2000/svg">
<path d="M13.5097 5.32779L13.5097 5.32777L13.5145 5.33104C13.796 5.52112 13.9998 5.62303 14.2013 5.68343C14.4042 5.74425 14.6401 5.7736 14.9995 5.7736C15.3593 5.7736 15.5951 5.74431 15.7979 5.68353C15.9993 5.62319 16.2029 5.52134 16.4843 5.33116L16.4843 5.33114L16.4887 5.32824C16.8746 5.07229 17.2587 4.59385 17.4468 4.10861L17.4467 4.10859L17.4494 4.1018C17.5242 3.91573 17.5789 3.57919 17.5789 3.19302C17.5789 2.80685 17.5242 2.47031 17.4494 2.28424L17.4494 2.28425L17.4478 2.28C17.1744 1.58392 16.5939 1.00824 15.8994 0.739897L15.8977 0.739249C15.7308 0.674172 15.4449 0.620631 15.1187 0.604757C14.7952 0.589013 14.5048 0.613842 14.3297 0.660633C13.3864 0.929733 12.6388 1.73364 12.4407 2.67203C12.2377 3.66308 12.696 4.78973 13.5097 5.32779Z" stroke="white" stroke-width="1.2"/>
<path d="M4.41306 3.88389L4.41171 3.88426C3.7588 4.0601 3.27424 4.46184 2.95507 5.12944L2.95508 5.12945L2.95412 5.13144C2.85567 5.33543 2.83345 5.40037 2.82015 5.47419C2.8027 5.57104 2.79733 5.70602 2.79733 6.05885C2.79733 6.41173 2.80276 6.54582 2.82066 6.64341C2.83461 6.71951 2.85847 6.78815 2.96089 7.00044L2.96091 7.00043L2.96312 7.00511C3.63302 8.42489 5.48158 8.74666 6.57158 7.64926L6.57261 7.64823C7.80508 6.41338 7.24587 4.32708 5.53923 3.87086C5.19017 3.77966 4.80207 3.77815 4.41306 3.88389Z" stroke="white" stroke-width="1.2"/>
<path d="M24.4558 3.85455L24.4578 3.85409C25.2532 3.6672 26.2216 3.99313 26.7074 4.5763C26.8107 4.70848 26.9772 4.97708 27.0604 5.16042L27.0639 5.16808L27.064 5.16806C27.1444 5.33879 27.1653 5.40236 27.1784 5.47924C27.1955 5.57914 27.2021 5.72242 27.2021 6.0589C27.2021 6.41214 27.1967 6.54614 27.1788 6.6437C27.1649 6.71954 27.1412 6.78798 27.0387 7.00018L27.0361 7.00548L27.0361 7.00549C26.5689 7.99723 25.4613 8.51251 24.461 8.2471C22.7924 7.80269 22.2013 5.80453 23.3498 4.53183L24.4558 3.85455ZM24.4558 3.85455C24.3126 3.88768 24.103 3.97701 23.8799 4.1128M24.4558 3.85455L23.8799 4.1128M23.8799 4.1128C23.659 4.24719 23.4681 4.40084 23.3499 4.53169L23.8799 4.1128Z" stroke="white" stroke-width="1.2"/>
<path d="M18.7559 20.2337L18.7559 20.2334C19.4468 16.4023 19.8788 13.9744 20.1337 12.4741C20.2613 11.7232 20.3436 11.2098 20.3918 10.8708C20.4159 10.7007 20.4306 10.581 20.4382 10.5001C20.4415 10.4645 20.4428 10.4423 20.4434 10.4305C20.4041 10.2115 20.2934 10.0645 20.0989 9.96238L19.9231 9.87442H14.9998H10.0765L9.9008 9.96237C9.70615 10.0645 9.59543 10.2116 9.55618 10.4308C9.55676 10.4425 9.55807 10.465 9.5615 10.5015C9.56909 10.5824 9.58372 10.7019 9.60789 10.8716C9.65607 11.2099 9.73843 11.722 9.86605 12.4721C10.121 13.9708 10.5531 16.3988 11.2438 20.2405L12.8921 29.4H14.9998H17.1075L18.7559 20.2337Z" stroke="white" stroke-width="1.2"/>
<path d="M3.34081 26.5657L5.00319 26.5547L5.00509 26.5547L6.66035 26.5386L7.41443 22.8547C7.41444 22.8546 7.41445 22.8546 7.41446 22.8546C7.64808 21.7121 7.86233 20.6544 8.01809 19.8705C8.09602 19.4783 8.15903 19.1561 8.20243 18.9266C8.2242 18.8115 8.24059 18.722 8.25137 18.6595C8.25307 18.6497 8.25458 18.6408 8.25591 18.6329C8.25551 18.6299 8.25508 18.6268 8.25463 18.6235C8.24783 18.5747 8.23738 18.5051 8.22331 18.4156C8.19528 18.2372 8.1543 17.9885 8.10304 17.687C8.0006 17.0844 7.85806 16.2763 7.69812 15.4085L7.69779 15.4067L7.21494 12.7404H4.26271C2.64963 12.7404 1.79265 12.744 1.30487 12.7619C0.873598 12.7777 0.795773 12.8044 0.769751 12.8167L0.769855 12.8169C0.683821 12.857 0.616888 12.9573 0.602759 13.0394C0.606957 13.0627 0.612528 13.0928 0.619531 13.13C0.638634 13.2314 0.666939 13.3779 0.703366 13.564C0.776144 13.9358 0.880444 14.4613 1.0063 15.0911C1.25797 16.3505 1.59535 18.0247 1.93801 19.7164C2.53042 22.6413 3.13374 25.5939 3.34081 26.5657ZM0.594974 12.9946L0.595327 12.9967C0.593945 12.9857 0.593217 12.9831 0.594974 12.9946ZM8.26389 18.5808C8.26384 18.5809 8.26352 18.5833 8.26308 18.5873C8.26372 18.5827 8.26394 18.5807 8.26389 18.5808Z" stroke="white" stroke-width="1.2"/>
<path d="M22.5784 22.7996L22.5785 22.8002L23.3397 26.5691H24.9907H26.6566C26.8605 25.6085 27.4653 22.6493 28.0594 19.7182C28.4025 18.0256 28.7405 16.35 28.9928 15.0899C29.1189 14.4597 29.2235 13.934 29.2964 13.5623C29.3329 13.3762 29.3613 13.2298 29.3805 13.1284C29.3847 13.1064 29.3883 13.0868 29.3915 13.0697C29.3904 13.066 29.3892 13.0621 29.3879 13.058C29.3718 13.008 29.3495 12.9544 29.3288 12.9146L29.3287 12.9147L29.325 12.9074C29.3079 12.8735 29.2952 12.8496 29.2863 12.8333C29.2545 12.8245 29.1934 12.8108 29.087 12.7981C28.616 12.7416 27.693 12.7403 25.7095 12.7403C24.6578 12.7403 23.7985 12.7473 23.2036 12.7585C23.0362 12.7617 22.8911 12.7652 22.7694 12.7689C22.7451 12.9079 22.7158 13.0741 22.6824 13.2623C22.5811 13.833 22.4414 14.6096 22.2878 15.4557C22.1345 16.304 21.9952 17.0876 21.8933 17.6668C21.8424 17.9565 21.8009 18.1947 21.7718 18.3641C21.7571 18.4494 21.7466 18.5112 21.7397 18.5524C21.74 18.5544 21.7404 18.5563 21.7407 18.5584C21.7515 18.6198 21.7678 18.7086 21.7894 18.823C21.8324 19.0513 21.8948 19.3747 21.9723 19.7699C22.1273 20.5599 22.3415 21.6333 22.5784 22.7996ZM29.4052 12.993C29.4071 12.9808 29.4063 12.9835 29.4049 12.9951L29.4052 12.993ZM22.8528 12.2612C22.8524 12.2651 22.8521 12.2686 22.8517 12.2719C22.8542 12.2499 22.8555 12.227 22.8555 12.2032C22.8555 12.2319 22.8534 12.255 22.8528 12.2608L22.8528 12.2612ZM21.7287 18.4865C21.728 18.4811 21.7276 18.4779 21.7275 18.4776C21.7274 18.4774 21.7277 18.4801 21.7287 18.4865Z" stroke="white" stroke-width="1.2"/>
</svg>
