<svg width="38" height="29" viewBox="0 0 38 29" fill="none" xmlns="http://www.w3.org/2000/svg">
<path d="M0 0H2.22959V28.4806H0V0Z" fill="white"/>
<path d="M1.45796 26.2006H37.5618V28.4806H1.45796V26.2006Z" fill="white"/>
<path d="M4.50571 20.3184C4.50571 21.6174 5.5604 22.6721 6.85938 22.6721C8.15836 22.6721 9.21305 21.6174 9.21305 20.3184C9.21305 19.0194 8.15836 17.9647 6.85938 17.9647C5.5604 17.9647 4.50571 19.0194 4.50571 20.3184Z" fill="white"/>
<path d="M14.8006 8.65854C14.8006 9.95752 15.8553 11.0122 17.1543 11.0122C18.4533 11.0122 19.508 9.95752 19.508 8.65854C19.508 7.35957 18.4533 6.30487 17.1543 6.30487C15.8553 6.30487 14.8006 7.35569 14.8006 8.65854Z" fill="white"/>
<path d="M21.5824 18.2982C21.5824 19.5972 22.6371 20.6519 23.9361 20.6519C25.2351 20.6519 26.2898 19.5972 26.2898 18.2982C26.2898 16.9992 25.2351 15.9445 23.9361 15.9445C22.6371 15.9445 21.5824 16.9992 21.5824 18.2982Z" fill="white"/>
<path d="M15.5063 8.771L17.2241 10.3259L8.35612 20.1245L6.63837 18.5696L15.5063 8.771Z" fill="white"/>
<path d="M23.8237 16.243L21.9392 17.5924L16.5843 10.1204L18.4688 8.771L23.8237 16.243Z" fill="white"/>
<path d="M36.4606 5.16876L38 6.90203L25.7043 17.8173L24.1649 16.0841L36.4606 5.16876Z" fill="white"/>
</svg>
